<!DOCTYPE svg PUBLIC "-//W3C//DTD SVG 1.1//EN" "http://www.w3.org/Graphics/SVG/1.1/DTD/svg11.dtd">
<svg fill="#000000" viewBox="0 0 24 24" id="wallet-money" data-name="Flat Line" xmlns="http://www.w3.org/2000/svg" class="icon flat-line"><g id="SVGRepo_bgCarrier" stroke-width="0"></g><g id="SVGRepo_tracerCarrier" stroke-linecap="round" stroke-linejoin="round"></g><g id="SVGRepo_iconCarrier"><path id="secondary" d="M16,13h5V10a1,1,0,0,0-1-1H4a1,1,0,0,0-1,1V20a1,1,0,0,0,1,1H20a1,1,0,0,0,1-1V17H16a1,1,0,0,1-1-1V14A1,1,0,0,1,16,13Z" style="fill: #94f1ff; stroke-width: 2;"></path><path id="primary" d="M17.21,9,19,6.44,14.09,3,9.88,9ZM9.09,4,5.58,9h4.3L12,6ZM21,10V20a1,1,0,0,1-1,1H4a1,1,0,0,1-1-1V10A1,1,0,0,1,4,9H20A1,1,0,0,1,21,10Zm0,7H16a1,1,0,0,1-1-1V14a1,1,0,0,1,1-1h5Z" style="fill: none; stroke: #0d47a1; stroke-linecap: round; stroke-linejoin: round; stroke-width: 2;"></path></g></svg>